/* XPM */
static char *brightness[] = {
/* columns rows colors chars-per-pixel */
"18 18 6 1 ",
"  c #2AA3CD",
". c #29A3CE",
"X c #29A3CF",
"o c #2AA3CE",
"O c #29A4CF",
"+ c None",
/* pixels */
"++++++++++++++++++",
"++++++++++++++++++",
"++++++++++++++++++",
"++++++++..++++++++",
"++++..++..++..++++",
"++++..++++++..++++",
"++++++++..++++++++",
"+++++++O..O+++++++",
"+++..+.O++..+..+++",
"+++..+..++..+..+++",
"+++++++O.O.+++++++",
"++++++++..++++++++",
"++++..++++++O.++++",
"++++..++..++..++++",
"++++++++..++++++++",
"++++++++++++++++++",
"++++++++++++++++++",
"++++++++++++++++++"
};
