/* XPM */
static char *calendar_clock_icon_16[] = {
/* columns rows colors chars-per-pixel */
"16 16 65 1 ",
"  c #33485D",
". c #34485D",
"X c #34495E",
"o c #354A5E",
"O c #364B60",
"+ c #384C60",
"@ c #384D61",
"# c #3C4F62",
"$ c #3D5265",
"% c #3F5366",
"& c #484656",
"* c #594651",
"= c #5B5B69",
"- c #4F6271",
"; c #526472",
": c #566775",
"> c #546776",
", c #60727D",
"< c #D64434",
"1 c #E14939",
"2 c #E24A3A",
"3 c #E54B3B",
"4 c #E64B3B",
"5 c #E74C3C",
"6 c #E54D3E",
"7 c #AF7A74",
"8 c #627480",
"9 c #687783",
"0 c #6A7B85",
"q c #697C86",
"w c #717F8D",
"e c #6F808B",
"r c #75858B",
"t c #74858C",
"y c #76868C",
"u c #76878D",
"i c #76878E",
"p c #798793",
"a c #7E8D91",
"s c #7F8F92",
"d c #809096",
"f c #83909A",
"g c #8A96A0",
"h c #96A4A8",
"j c #97A5A9",
"k c #9DAAAD",
"l c #C19490",
"z c #C19491",
"x c #B9C1C4",
"c c #BAC1C5",
"v c #BBC1C5",
"b c #B9C2C4",
"n c #BCC2C6",
"m c #BFC7C9",
"M c #CED4D6",
"N c #D1D7D9",
"B c #D7DBDE",
"V c #D7DCDE",
"C c #D6DDDE",
"Z c #D7DDDE",
"A c #DBE0E2",
"S c #EAEEEF",
"D c #EBEFF0",
"F c #ECF0F1",
"G c None",
/* pixels */
"GGGGGGGGGGGGGGGG",
"GGGvvGGGGGGvvGGG",
"GG6zl445444lz6GG",
"GG277255442772GG",
"GG4<<444444<<4GG",
"GG644455446464GG",
"GGFDSSDDSSDDDDGG",
"GGDVBBVVVVVVBDGG",
"GGFVBBBBVVMMxCGG",
"GGFVBBBBVNh,-,GG",
"GGDVBBVBMhoow -a",
"GGFVBBVVM:oogo@t",
"GGSVVVVVv;.=9fps",
"GGASFFFFVr&*%o%t",
"GGGnnnnnvk:#o%qG",
"GGGGGGGGGGdiitGG"
};
