/* XPM */
static char *clock[] = {
/* columns rows colors chars-per-pixel */
"14 14 31 1 ",
"  c #008001",
". c #018002",
"X c #028003",
"o c #028103",
"O c #038004",
"+ c #038104",
"@ c #048104",
"# c #048105",
"$ c #048205",
"% c #058206",
"& c #068206",
"* c #068207",
"= c #078307",
"- c #078208",
"; c #078308",
": c #088308",
"> c #088309",
", c #09830A",
"< c #09840A",
"1 c #0A840B",
"2 c #0B840C",
"3 c #0B850C",
"4 c #0C850C",
"5 c #0C850D",
"6 c #0D860E",
"7 c #0E860F",
"8 c #0F8710",
"9 c #108711",
"0 c #118812",
"q c #148914",
"w c None",
/* pixels */
"wwwww&&&+wwwww",
"www&.<772..www",
"ww+&wwwwww2.ww",
"w<&wwwq&www7+w",
"w.wwww0.wwww+w",
"7&wwww0&;+ww2+",
"&&wwwww.&www8.",
"&&wwwww&wwww0.",
"2+wwwwwwwwww7.",
"w.wwwwwwwwww&w",
"w2.wwwwwwww<+w",
"ww&&wwwwww<+ww",
"www<.&:::.&www",
"wwwww<:&;wwwww"
};
