/* XPM */
static char *cpu_icon_16[] = {
/* columns rows colors chars-per-pixel */
"24 16 34 1 ",
"  c #645F37",
". c #6D6639",
"X c #6F683C",
"o c #786B37",
"O c #796C3A",
"+ c #285265",
"@ c #2E576B",
"# c #345E77",
"$ c #355E77",
"% c #355F77",
"& c #35607A",
"* c #35607B",
"= c #4F6057",
"- c #676B51",
"; c #42626D",
": c #45646F",
"> c #566966",
", c #846D30",
"< c #886F30",
"1 c #A17A2B",
"2 c #B68327",
"3 c #B98426",
"4 c #FFA317",
"5 c #FAA018",
"6 c #FAA118",
"7 c #FBA118",
"8 c #FCA118",
"9 c #3F73A0",
"0 c #4479A7",
"q c #4D80B0",
"w c #5385B7",
"e c #4F8BCD",
"r c #5A9DEE",
"t c None",
/* pixels */
"tttttttttttttttttttttttt",
"ttttttttt<t  t<ttttttttt",
"ttttttttt3t,,t3ttttttttt",
"tttttttt@-+==+-@tttttttt",
"ttttttt*rrrrrrrr*ttttttt",
"ttttt12>re0000er>21ttttt",
"ttttttt$r955559r$ttttttt",
"tttttXO;r944449r:o.ttttt",
"ttttt.o:r944449r;OXttttt",
"ttttttt$r985559r$ttttttt",
"ttttt12>rewq00er>21ttttt",
"ttttttt*rrrrrrrr*ttttttt",
"tttttttt@-+==+-@tttttttt",
"ttttttttt3t,,t3ttttttttt",
"ttttttttt<t .t<ttttttttt",
"tttttttttttttttttttttttt"
};
