/* XPM */
static char *gnome_cpu_16[] = {
/* columns rows colors chars-per-pixel */
"16 16 126 2 ",
"   c #121212",
".  c #151515",
"X  c #161616",
"o  c #181818",
"O  c #191919",
"+  c #1A1A1A",
"@  c #1C1C1C",
"#  c #1D1D1D",
"$  c #202020",
"%  c #232323",
"&  c #242424",
"*  c #262626",
"=  c #272727",
"-  c #282828",
";  c #292929",
":  c #2A2A2A",
">  c #2B2B2B",
",  c #2C2C2C",
"<  c #2D2D2D",
"1  c #2E2E2E",
"2  c #303030",
"3  c #313131",
"4  c #333333",
"5  c #343434",
"6  c #383838",
"7  c #393939",
"8  c #3A3A3A",
"9  c #3C3C3C",
"0  c #3D3D3D",
"q  c #404040",
"w  c #414141",
"e  c #424242",
"r  c #434342",
"t  c #444444",
"y  c #454444",
"u  c #454545",
"i  c #464646",
"p  c #474747",
"a  c #4B4B4B",
"s  c #4E4E4E",
"d  c #4F4F4F",
"f  c #515151",
"g  c #525252",
"h  c #535353",
"j  c gray33",
"k  c #555555",
"l  c #565656",
"z  c #575757",
"x  c #5A5A5A",
"c  c #5E5E5E",
"v  c #5F5F5F",
"b  c #616161",
"n  c #656565",
"m  c #676666",
"M  c #676767",
"N  c #696969",
"B  c #6C6C6C",
"V  c #6E6E6E",
"C  c #6F6F6F",
"Z  c #727272",
"A  c #737373",
"S  c #747373",
"D  c #757575",
"F  c #797979",
"G  c #7A7A7A",
"H  c #7D7D7D",
"J  c #7E7E7E",
"K  c #807F7F",
"L  c #818181",
"P  c #828282",
"I  c #838383",
"U  c #848484",
"Y  c #858585",
"T  c #868686",
"R  c #878787",
"E  c #898888",
"W  c #898989",
"Q  c #8B8B8B",
"!  c #8C8C8C",
"~  c #8D8C8C",
"^  c #8E8D8D",
"/  c #8E8E8E",
"(  c #8F8F8F",
")  c #909090",
"_  c #919090",
"`  c #919191",
"'  c #929292",
"]  c #939292",
"[  c #949393",
"{  c #959494",
"}  c #959595",
"|  c #969696",
" . c #979696",
".. c #989898",
"X. c #999999",
"o. c #9A9999",
"O. c #9C9C9C",
"+. c #9E9D9D",
"@. c #A1A1A1",
"#. c #A3A3A3",
"$. c #A5A5A5",
"%. c #A7A6A6",
"&. c #A7A7A7",
"*. c #A9A9A9",
"=. c #AAA9A9",
"-. c #AAAAAA",
";. c #ABABAB",
":. c #ACACAC",
">. c #ADADAD",
",. c #AEAEAE",
"<. c #AFAFAF",
"1. c #B0B0B0",
"2. c gray71",
"3. c #B6B6B6",
"4. c #B7B6B6",
"5. c #B7B7B7",
"6. c #B8B7B7",
"7. c #BABABA",
"8. c #BEBDBD",
"9. c #BFBDBD",
"0. c #BFBEBE",
"q. c #C0C0C0",
"w. c #C4C4C4",
"e. c #C5C5C5",
"r. c #CECDCD",
"t. c None",
/* pixels */
"t.t.X + 2 * X + 1 =     ; t.t.t.",
"t.t.u 1 j s ; 1 j d * * b 5 t.t.",
"X u e.7.2.6.2.2.2.<.;.$.| x + t.",
"X ; <.| | | | | [ ( ' ' D 1 * t.",
"1 j ;.;.w.2.8.0.$.( ;.r.F w w t.",
"; h ;.<.1.6.8.8.6.[ ;.&.Z q r t.",
"+ 1 #.T T T T T T T P J N ; 2 t.",
"+ 1 #.P T T I T R P J G M , 2 t.",
"% a @.~ ..O.o.| | ' F D b 0 r t.",
", h ..R ~ [ ( [ E J D Z v 0 u t.",
"o < ..( [ ..| +.~ S V N x ; @ t.",
"+ < | K R G I ( I C m m h * @ t.",
", v P z j z j z j j h h u u 7 t.",
"t.4 z = 0 0 ; ; 0 9 = = u 9 t.t.",
"t.t.% * u p @ @ u 7 $ @ 7 t.t.t.",
"t.t.t.t.t.t.t.t.t.t.t.t.t.t.t.t."
};
