/* XPM */
static char *harddisk_icon_16[] = {
/* columns rows colors chars-per-pixel */
"16 16 79 1 ",
"  c #212121",
". c #3A3A3A",
"X c #3E3E3E",
"o c #424242",
"O c #474747",
"+ c gray29",
"@ c #4E4E4E",
"# c gray31",
"$ c #545454",
"% c gray34",
"& c #535D52",
"* c #565955",
"= c #5F5F5F",
"- c #606060",
"; c #626262",
": c #656565",
"> c #666666",
", c #696969",
"< c #6A6A6A",
"1 c #6B6B6B",
"2 c #6C6F69",
"3 c #6C6C6C",
"4 c #6A7362",
"5 c #767676",
"6 c #929292",
"7 c #979797",
"8 c gray64",
"9 c #A4A4A4",
"0 c #A5A5A5",
"q c #A6A6A6",
"w c #A7A7A7",
"e c #AAAAAA",
"r c #ABABAB",
"t c #AEAEAE",
"y c #AFAFAF",
"u c #B0B0B0",
"i c #B1B1B1",
"p c #B3B3B3",
"a c #B5B5B5",
"s c gray72",
"d c #B9B9B9",
"f c #BABABA",
"g c #BBBBBB",
"h c #BCBCBC",
"j c #BDBDBD",
"k c #C0C0C0",
"l c #C1C1C1",
"z c #C2C2C2",
"x c #C4C4C4",
"c c #C5C5C5",
"v c #C6C6C6",
"b c #C7C7C7",
"n c #C8C8C8",
"m c #C9C9C9",
"M c #CACACA",
"N c #CBCBCB",
"B c #CCCCCC",
"V c #CDCDCD",
"C c #CECECD",
"Z c #CECECE",
"A c #CFCFCF",
"S c #D0D0CF",
"D c #D0D0D0",
"F c #D1D1D1",
"G c #D2D2D2",
"H c #D3D3D3",
"J c #D4D4D4",
"K c #D5D5D5",
"L c #D6D6D6",
"P c #D7D7D7",
"I c #D8D8D8",
"U c #D9D9D9",
"Y c #DADADA",
"T c gray86",
"R c #DCDCDC",
"E c #DDDDDD",
"W c #E1E1E1",
"Q c #E6E6E6",
"! c None",
/* pixels */
"!!!!!!!!!!!!!!!!",
"!!isBBSSMsjasi!!",
"!!jkHHHYBMHsMb!!",
"!!bMJEQEJYJkHH!!",
"!5JEQWYYEERBHJ5!",
"!6kJYYYYYYYYHk6!",
"!aHHYJYJJYYYHJa!",
"!BMBJHbHHMJJBMB!",
"!JMMBBBYJMBHBMJ!",
"!JBMBMbBMbMMMBJ!",
"!kBHJbjssjbJHBb!",
"!wMkMHJHJYHMbMw!",
"!7yyrw8w8wwryy7!",
"!---11-=:13324-!",
"!++ X@@.o$%%*&+!",
"!!!!!!!!!!!!!!!!"
};
