/* XPM */
static char *memory_icon_16[] = {
/* columns rows colors chars-per-pixel */
"16 16 93 2 ",
"   c #2A7D32",
".  c #38723B",
"X  c #387A3C",
"o  c #436F3F",
"O  c #425944",
"+  c #495548",
"@  c #4A5548",
"#  c #4D554A",
"$  c #4E574A",
"%  c #4A5D48",
"&  c #4F5C49",
"*  c #505E4A",
"=  c #51594E",
"-  c #426743",
";  c #4D6747",
":  c #486E45",
">  c #4F6D4A",
",  c #53624F",
"<  c #57634E",
"1  c #57634F",
"2  c #54694A",
"3  c #546E4E",
"4  c #586D4B",
"5  c #407641",
"6  c #447B46",
"7  c #4E7846",
"8  c #4E724F",
"9  c #4F7948",
"0  c #4C7E4A",
"q  c #4D7F4A",
"w  c #5A7F40",
"e  c #57734E",
"r  c #58714F",
"t  c #527A48",
"y  c #567D4A",
"u  c #5C784E",
"i  c #506451",
"p  c #586655",
"a  c #576F51",
"s  c #596F56",
"d  c #5F7451",
"f  c #567E52",
"g  c #5C7850",
"h  c #5E7950",
"j  c #5C7B51",
"k  c #607653",
"l  c #627B51",
"z  c #3C833D",
"x  c #3C8B3C",
"c  c #3F8442",
"v  c #498346",
"b  c #488843",
"n  c #498843",
"m  c #4D8A43",
"M  c #4E8944",
"N  c #4E824B",
"B  c #518645",
"V  c #538048",
"C  c #578348",
"Z  c #548D48",
"A  c #598D49",
"S  c #5F9044",
"D  c #5D9147",
"F  c #57964F",
"G  c #5A954E",
"H  c #539849",
"J  c #5E8451",
"K  c #5C8453",
"L  c #5F8A52",
"P  c #5C9052",
"I  c #5F9B51",
"U  c #6E8441",
"Y  c #63924A",
"T  c #68924A",
"R  c #6F9F4C",
"E  c #719B4A",
"W  c #709D48",
"Q  c #648557",
"!  c #618D50",
"~  c #54A743",
"^  c #5DA64D",
"/  c #5BAA48",
"(  c #819C4C",
")  c #98A54E",
"_  c #AEAA52",
"`  c #A5B55C",
"'  c #B3B65F",
"]  c #B8B35F",
"[  c #BEB15E",
"{  c #D0AF58",
"}  c #C2B156",
"|  c #D8B759",
" . c None",
/* pixels */
" . . . . . . . . . . . . . . . .",
" . . . . . . . . . . . . . . . .",
" . . . . . . . . . . . . . . . .",
" . . . . . . . . . . . . . . . .",
" . . . . . . . . .x c z 6 X  . .",
" .~ / ^ F H f Z d V p 7 i .    .",
" .Q a ! ; A : M 0 b v b 0 N 8  .",
" .h m I G P K L a K , h = r +  .",
" .y B 1 4 k * l + d # e # u %  .",
" .R D 1 2 d & h % 9 - 6 o o U  .",
" . .D t C Y T E E ) _ } | {  . .",
" . .E ` ' ] }  . . . . . . . . .",
" . . . . . . . . . . . . . . . .",
" . . . . . . . . . . . . . . . .",
" . . . . . . . . . . . . . . . .",
" . . . . . . . . . . . . . . . ."
};
