/* XPM */
static char *mic[] = {
/* columns rows colors chars-per-pixel */
"24 24 19 1 ",
"  c #8B267D",
". c #8B267E",
"X c #8C257E",
"o c #8C267E",
"O c #CF1771",
"+ c #D01771",
"@ c #D11771",
"# c #DD1878",
"$ c #DE1879",
"% c #E5197C",
"& c #E6197D",
"* c #E7197D",
"= c #952886",
"- c #9A298A",
"; c #9A298B",
": c #9B298B",
"> c #992A8A",
", c #9A2A8A",
"< c None",
/* pixels */
"<<<<<<<<<<<<<<<<<<<<<<<<",
"<<<<<<<<<<<O#%<<<<<<<<<<",
"<<<<<<<<<<@@%*%<<<<<<<<<",
"<<<<<<<<<@@@#**%<<<<<<<<",
"<<<<<<<<<@@@#***<<<<<<<<",
"<<<<<<<<@@@@#***<<<<<<<<",
"<<<<<<<<@@@@#***<<<<<<<<",
"<<<<<<<<O@@@#***<<<<<<<<",
"<<<<<<<<O@@@#***<<<<<<<<",
"<<<<<<<<O@@@#%**<<<<<<<<",
"<<<<<<<<O@@@%***<<<<<<<<",
"<<<<<<<<O@@@#***<<<<<<<<",
"<<<<<<<<+@@@#***<<<<<<<<",
"<<<<<X<<<@@@#***<<,,<<<<",
"<<<<<  <<@@@%***<<,<<<<<",
"<<<<<<X<<<@O#%%<<<,<<<<<",
"<<<<<<X <<<<<<<<<,<<<<<<",
"<<<<<<<XX<<<<<<<,,<<<<<<",
"<<<<<<<< XX <,,,<<<<<<<<",
"<<<<<<<<<<<X=,<<<<<<<<<<",
"<<<<<<<<<<<<=<<<<<<<<<<<",
"<<<<<<<<<<<X=<<<<<<<<<<<",
"<<<<<<<<XXXX=,,,,<<<<<<<",
"<<<<<<<<<<<<<<<<<<<<<<<<"
};
