/* XPM */
static char *microphone[] = {
/* columns rows colors chars-per-pixel */
"24 24 82 1 ",
"  c #0C355E",
". c #0A3363",
"X c #0C3964",
"o c #08396B",
"O c #173E75",
"+ c #193C74",
"@ c #1E3E74",
"# c #153F79",
"$ c #1C3B78",
"% c #024275",
"& c #0C4372",
"* c #084374",
"= c #0B4275",
"- c #0A4775",
"; c #0B467B",
": c #094B7A",
"> c #094C7D",
", c #094C7E",
"< c #124379",
"1 c #17417B",
"2 c #11477A",
"3 c #11477D",
"4 c #12477D",
"5 c #19467D",
"6 c #074F82",
"7 c #044F87",
"8 c #0E4B80",
"9 c #094F82",
"0 c #0E4D87",
"q c #114580",
"w c #144785",
"e c #124A81",
"r c #104C82",
"t c #114E84",
"y c #05538F",
"u c #07538F",
"i c #04578C",
"p c #085088",
"a c #0A528A",
"s c #0C518B",
"d c #0A5489",
"f c #08568C",
"g c #0A568C",
"h c #09588E",
"j c #125288",
"k c #19528D",
"l c #1A538E",
"z c #025790",
"x c #035992",
"c c #055993",
"v c #065993",
"b c #035A95",
"n c #025C97",
"m c #045D97",
"M c #0C5B94",
"N c #015E9A",
"B c #015F9A",
"V c #045D99",
"C c #015F9D",
"Z c #085C99",
"A c #026098",
"S c #01629C",
"D c #03639E",
"F c #326592",
"G c #0662A0",
"H c #0A64A1",
"J c #0168A5",
"K c #0166A9",
"L c #006BAC",
"P c #1667A0",
"I c #4A678B",
"U c #4B6B8E",
"Y c #4D698C",
"T c #4E6C8F",
"R c #4C6C90",
"E c #457297",
"W c #4C7294",
"Q c #4A7199",
"! c #4A709B",
"~ c #4881AB",
"^ c #428AB6",
"/ c None",
/* pixels */
"////////////////////////",
"////////////////////////",
"////////////////////////",
"//////////yyvs//////////",
"//////////79vKf/////////",
"/////////X=6VLJ/////////",
"/////////UWEpSA/////////",
"/////////.o=q0i/////////",
"/////////YT!w1d/////////",
"/////////RI!+1h/////////",
"///////,/2t5@4g/:///////",
"///////x/F~^e8,/-///////",
"///////B/4MSB#</&///////",
"//////////VBS$//////////",
"////////z//////l////////",
"/////////Gb//Hl/////////",
"///////////pt///////////",
"////////////////////////",
"////////////////////////",
"////////////////////////",
"///////// ;jPZ%/////////",
"////////////////////////",
"////////////////////////",
"////////////////////////"
};
