/* XPM */
static char *microphone_icon_18[] = {
/* columns rows colors chars-per-pixel */
"18 18 105 2 ",
"   c #464545",
".  c #474646",
"X  c #4B4849",
"o  c #4D4B4C",
"O  c #4E4C4D",
"+  c #4F4C4D",
"@  c #4F4D4E",
"#  c #515050",
"$  c #555354",
"%  c #575455",
"&  c #565656",
"*  c #585556",
"=  c #595758",
"-  c #5B5758",
";  c #5B5A5A",
":  c #5C5A5B",
">  c #605E5F",
",  c #646263",
"<  c #676566",
"1  c #666666",
"2  c #6F6D6E",
"3  c #6F6E6E",
"4  c #706C6D",
"5  c #706C6E",
"6  c #766F72",
"7  c #717070",
"8  c #737273",
"9  c #747072",
"0  c #767474",
"q  c #767575",
"w  c #7A7476",
"e  c #797677",
"r  c #7D7C7C",
"t  c #807A7C",
"y  c #828080",
"u  c #838182",
"i  c #868485",
"p  c #8A8788",
"a  c #8B8889",
"s  c #8D888A",
"d  c #8E8B8D",
"f  c #8E8C8D",
"g  c #908E8E",
"h  c #928E8E",
"j  c #919191",
"k  c #939393",
"l  c #949192",
"z  c #949393",
"x  c #969395",
"c  c #9B9A9A",
"v  c #9D999A",
"b  c #9C9A9B",
"n  c #9D9A9C",
"m  c #9D9B9C",
"M  c #9F9C9E",
"N  c #A29EA0",
"B  c #A39FA0",
"V  c #A2A1A1",
"C  c #A2A1A2",
"Z  c #A2A2A2",
"A  c #A5A2A3",
"S  c #A5A4A5",
"D  c #AAA7A8",
"F  c #A9A8A8",
"G  c #AAA9AA",
"H  c #ABAAAA",
"J  c #AEAAAB",
"K  c #AFABAD",
"L  c #AEACAD",
"P  c #B0AFB0",
"I  c #B2AFB0",
"U  c #B2B2B2",
"Y  c #B4B3B3",
"T  c #B4B4B4",
"R  c #B6B6B6",
"E  c #B9B7B7",
"W  c #BAB9B9",
"Q  c #BAB9BA",
"!  c #BBBABB",
"~  c #BCB9BA",
"^  c #BCBBBB",
"/  c #BDBCBD",
"(  c #BDBDBD",
")  c #BEBDBE",
"_  c #C0C0C0",
"`  c #C3C1C2",
"'  c #C4C2C3",
"]  c #C4C3C4",
"[  c #C5C4C5",
"{  c #C7C6C6",
"}  c #C7C7C7",
"|  c #C8C6C7",
" . c #C8C7C7",
".. c #C9C8C8",
"X. c #CACACA",
"o. c #CBCBCB",
"O. c #CECDCD",
"+. c #CFCFCF",
"@. c #D1D0D0",
"#. c #D1D0D1",
"$. c #D5D5D5",
"%. c #DBDADB",
"&. c #DBDBDB",
"*. c #E0DFDF",
"=. c None",
/* pixels */
"=.=.=.=.=.=.=.=.=.=.=.=.=.=.=.=.=.=.",
"=.=.=.=.=.=.=.+.) G g q =.=.=.=.=.=.",
"=.=.=.=.=.=.T %.@.E B p , =.=.=.=.=.",
"=.=.=.=.=.=.G X.X. .r 8 & =.=.=.=.=.",
"=.=.=.=.=.=.S $.+.` u u ; =.=.=.=.=.",
"=.=.=.=.=.=.C %. .^ n n > =.=.=.=.=.",
"=.=.=.=.=.=.k U v Z 5 < # g =.=.=.=.",
"=.=.=.=.=.=.z ^ C J y q $ a =.=.=.=.",
"=.=.=.=.=.=.k  .I K f 8 @ =.=.=.=.=.",
"=.=.=.=.=.=.1 7 5 z * + . =.=.=.=.=.",
"=.=.=.=.=.=.: 5 e 5 - X . =.=.=.=.=.",
"=.=.=.=.=.e =.o * * +   =.=.=.=.=.=.",
"=.=.=.=.=.6 t =.=.m =.=.=.=.=.=.=.=.",
"=.=.=.=.=.=.=.=.D D a =.=.=.=.=.=.=.",
"=.=.=.=.=.=.=.T ) ` I T =.=.=.=.=.=.",
"=.=.=.=.! ` #.*.[ ! K B z n =.=.=.=.",
"=.=.=.=.^  .[ [ ) U J m f i Z =.=.=.",
"=.=.=.=.=.=.=.=.=.=.=.=.=.=.=.=.=.=."
};
