/* XPM */
static char *music[] = {
/* columns rows colors chars-per-pixel */
"24 24 70 1 ",
"  c #E65645",
". c #EB5843",
"X c #ED5B41",
"o c #ED5A42",
"O c #E74D57",
"+ c #E24A5B",
"@ c #EB5153",
"# c #EE5552",
"$ c #ED5953",
"% c #EB5E52",
"& c #EC5C52",
"* c #E9535F",
"= c #E96051",
"- c #DE566E",
"; c #D44D7B",
": c #CF5277",
"> c #D05F75",
", c #D85B71",
"< c #E94C61",
"1 c #EA4F60",
"2 c #E24D6C",
"3 c #E65860",
"4 c #E35C64",
"5 c #E1526D",
"6 c #DB6766",
"7 c #DE6368",
"8 c #CB6477",
"9 c #C86878",
"0 c #C5707D",
"q c #E06066",
"w c #3E7CE5",
"e c #3F7CF6",
"r c #6F5BD2",
"t c #5C64DD",
"y c #5B53EB",
"u c #525CF7",
"i c #5A5EF7",
"p c #5C58FB",
"a c #644FF0",
"s c #6551F5",
"d c #4C6FE3",
"f c #5665EA",
"g c #456EF6",
"h c #4E67F8",
"j c #4B71F5",
"k c #BD4C8D",
"l c #AA7B95",
"z c #9850B2",
"x c #AA4CA1",
"c c #8355C4",
"v c #6C9FBE",
"b c #7F93B7",
"n c #3DA8DB",
"m c #3AB6DE",
"M c #3980EB",
"N c #1CB5E5",
"B c #27A9E7",
"V c #32A3E2",
"C c #2FB5E8",
"Z c #22BAEC",
"A c #58ACC6",
"S c #47B8D3",
"D c #36C5DF",
"F c #19C0E2",
"G c #1ECBE3",
"H c #1FC7EB",
"J c #2CC2E7",
"K c #28CDE4",
"L c #9487A9",
"P c None",
/* pixels */
"PPPPPPPPPPPPPPPPPPPPPPPP",
"PPPPPPPPPPPPPPPPPPPPPPPP",
"PPPPPPPPPPPPPPPPPPPPPPPP",
"PPPPPPPPPPPPPPPPPPPPPPPP",
"PPPPPPPPPPPPP .ooPPPPPPP",
"PPPPPPPPP+O@#$&%=PPPPPPP",
"PPPPPPPPP11*34q76PPPPPPP",
"PPPPPPPPP25-,>890PPPPPPP",
"PPPPPPPPP;:PPPPPlPPPPPPP",
"PPPPPPPPPkPPPPPPLPPPPPPP",
"PPPPPPPPPxPPPPPPbPPPPPPP",
"PPPPPPPPPzPPPPPPvPPPPPPP",
"PPPPPPPPPcPPPPPPAPPPPPPP",
"PPPPPPPPPrPPPPPPSPPPPPPP",
"PPPPPPPPPtPPPPnmDPPPPPPP",
"PPPPPPPPfdPPPVCJKPPPPPPP",
"PPPPPPsijwPPPBZHGPPPPPPP",
"PPPPPaphePPPPPNFPPPPPPPP",
"PPPPPyugMPPPPPPPPPPPPPPP",
"PPPPPPPPPPPPPPPPPPPPPPPP",
"PPPPPPPPPPPPPPPPPPPPPPPP",
"PPPPPPPPPPPPPPPPPPPPPPPP",
"PPPPPPPPPPPPPPPPPPPPPPPP",
"PPPPPPPPPPPPPPPPPPPPPPPP"
};
