/* XPM */
static char *nixos_16[] = {
/* columns rows colors chars-per-pixel */
"16 14 47 1 ",
"  c #4A6BAE",
". c #4B6CB1",
"X c #4B6DB2",
"o c #4D6FB2",
"O c #4C6EB3",
"+ c #4C6EB4",
"@ c #4D6FB5",
"# c #4D70B7",
"$ c #4E71B8",
"% c #4E71B9",
"& c #4E71BA",
"* c #4F73BC",
"= c #547AB7",
"- c #5073BD",
"; c #5074BD",
": c #5074BE",
"> c #5074BF",
", c #5175BF",
"< c #5378BF",
"1 c #5175C0",
"2 c #5176C1",
"3 c #5276C2",
"4 c #5277C2",
"5 c #5277C3",
"6 c #5982BF",
"7 c #5D86C7",
"8 c #648ECD",
"9 c #6B9ACD",
"0 c #6899CE",
"q c #70A0D5",
"w c #71A0D5",
"e c #7BADDC",
"r c #78AFDC",
"t c #7CAFDC",
"y c #7EB2DE",
"u c #7EB3DE",
"i c #7EB3DF",
"p c #7EB4DF",
"a c #7EB5E0",
"s c #7EB6E1",
"d c #7EB7E2",
"f c #7EB8E2",
"g c #7EB8E3",
"h c #7EB9E3",
"j c #7EB9E4",
"k c #7EBAE4",
"l c None",
/* pixels */
"llll5lllkllkllll",
"llll5-llkkkhllll",
"llll5%%l9hslllll",
"ll555*%+ rsll5ll",
"llllwwllllpyl5ll",
"llllyyllllye55ll",
"hhsssllllll7>>55",
"kkhs9llllll#%*-5",
"llkh#Xllll.+llll",
"llklX+llll=6llll",
"llkll%<tyshhkkll",
"lllll>>8lsshllll",
"llll>555llhhllll",
"llll5ll55llhllll"
};
