/* XPM */
static char *ssd[] = {
/* columns rows colors chars-per-pixel */
"18 18 119 2 ",
"   c #56523E",
".  c #1F2D51",
"X  c #202D51",
"o  c #3E4A64",
"O  c #344769",
"+  c #2A4772",
"@  c #2A4773",
"#  c #374F74",
"$  c #375075",
"%  c #375076",
"&  c #385075",
"*  c #36557B",
"=  c #4E4E48",
"-  c #53544D",
";  c #5A5D55",
":  c #495267",
">  c #495367",
",  c #46536B",
"<  c #4A5368",
"1  c #4B5368",
"2  c #4B5468",
"3  c #4E596E",
"4  c #535A62",
"5  c #51596B",
"6  c #525C6E",
"7  c #405674",
"8  c #4F5A70",
"9  c #5A6170",
"0  c #5A6270",
"q  c #5B6270",
"w  c #5B6271",
"e  c #5C6371",
"r  c #5D6472",
"t  c #5E6572",
"y  c #5E6573",
"u  c #606774",
"i  c #616874",
"p  c #606979",
"a  c #60697A",
"s  c #606A7A",
"d  c #646D7C",
"f  c #666F7D",
"g  c #666F7E",
"h  c #6B727D",
"j  c #6C737D",
"k  c #325B84",
"l  c #335D87",
"z  c #335E87",
"x  c #3E5F82",
"c  c #345F88",
"v  c #345F89",
"b  c #325C8E",
"n  c #346089",
"m  c #34608A",
"M  c #35648E",
"N  c #35648F",
"B  c #376994",
"V  c #386994",
"C  c #386B95",
"Z  c #386B96",
"A  c #396B96",
"S  c #3A6E9A",
"D  c #3C6A9C",
"F  c #3C6B9D",
"G  c #446181",
"H  c #456282",
"J  c #456382",
"K  c #456383",
"L  c #707884",
"P  c #707984",
"I  c #777E86",
"U  c #407CB7",
"Y  c #407DB9",
"T  c #4282B0",
"R  c #4283B0",
"E  c #4283B1",
"W  c #4386B4",
"Q  c #458CBA",
"!  c #458CBB",
"~  c #468DBC",
"^  c #478FBE",
"/  c #4993C2",
"(  c #4893C7",
")  c #4994C4",
"_  c #4995C5",
"`  c #4B9ACB",
"'  c #4D9ECE",
"]  c #4890D1",
"[  c #4891D3",
"{  c #4992D3",
"}  c #4A96D6",
"|  c #4C9BD8",
" . c #4D9EDA",
".. c #4E9FDB",
"X. c #4E9FDC",
"o. c #4FA3D4",
"O. c #4EA0DB",
"+. c #4FA3DE",
"@. c #51A7E0",
"#. c #54AFE2",
"$. c #56B4E9",
"%. c #57B5E9",
"&. c #57B6E9",
"*. c #57B6EA",
"=. c #57B7EA",
"-. c #57B7EB",
";. c #838A90",
":. c #878E92",
">. c #8C96A4",
",. c #959CA0",
"<. c #949DA9",
"1. c #9BA4AE",
"2. c #A2AAB0",
"3. c #A7AFB5",
"4. c #A9B1B6",
"5. c #AAB2B7",
"6. c #ABB3B7",
"7. c #B5BCBF",
"8. c None",
/* pixels */
"8.8.8.8.8.8.8.8.8.8.8.8.8.8.8.8.8.8.",
"8.8.8.8.8.8.8.8.8.8.8.8.8.8.8.8.8.8.",
"8.8.8.8.8.8.8.8.8.8.8.8.8.8.8.8.8.8.",
"8.< < I :.,.5.5.5.5.6.7.5.5.<.1.>.8.",
"8.<   d & H H H K K K K G h - ; 3.8.",
"8.w : , ` =.=.=.$.-.-.$.&.n L ;.2.8.",
"8.w + ( =.=.=.&.-.-.-.-.-.#.b L 8 8.",
"8.w b @.=.A z o.b v ~ k Z -.E y . 8.",
"8.w D +.$.n ^ ' m Q W ) B $.R d X 8.",
"8.w F } $.Q S ) Q m R _ B -.W y . 8.",
"8.w b [ +.A v o.m m Q k Z -.W y . 8.",
"8.w @ Y [ O.$.$.$.-.-.-.-.#.N P 3 8.",
"8.w : o Y [ [ | O.....O.X.* 6 h h 8.",
"8.2   < O $ & $ $ $ $ $ $ < = ; e 8.",
"8.< < t t i u t t t t t t t 3 w 2 8.",
"8.8.8.8.8.8.8.8.8.8.8.8.8.8.8.8.8.8.",
"8.8.8.8.8.8.8.8.8.8.8.8.8.8.8.8.8.8.",
"8.8.8.8.8.8.8.8.8.8.8.8.8.8.8.8.8.8."
};
