/* XPM */
static char *ssd[] = {
/* columns rows colors chars-per-pixel */
"13 16 65 1 ",
"  c #5E2F28",
". c #6B342C",
"X c #6F372F",
"o c #71382F",
"O c #753930",
"+ c #783B32",
"@ c #7D3E35",
"# c #585349",
"$ c #505050",
"% c #515151",
"& c #535353",
"* c #645B4B",
"= c #655C4B",
"- c #6A604C",
"; c #7E6E50",
": c #616160",
"> c #666664",
", c #686866",
"< c #696967",
"1 c #6B6967",
"2 c #6D6A67",
"3 c #6A6A68",
"4 c #6F6F6E",
"5 c #736966",
"6 c #7B6A65",
"7 c #746E6C",
"8 c #7C736F",
"9 c #757573",
"0 c #757574",
"q c #7E7E7C",
"w c #834036",
"e c #884338",
"r c #91473C",
"t c #94493E",
"y c #994B3F",
"u c #9D4D41",
"i c #A65144",
"p c #A85245",
"a c #B05648",
"s c #B35749",
"d c #B75A4C",
"f c #8C6B65",
"g c #8E6B65",
"h c #C35F50",
"j c #CA6354",
"k c #CB6454",
"l c #D66958",
"z c #DC6B5B",
"x c #DC6C5B",
"c c #E26F5E",
"v c #E3705E",
"b c #E5705F",
"n c #E8715F",
"m c #9F8656",
"M c #A28857",
"N c #A58A57",
"B c #AF9159",
"V c #B19359",
"C c #EFAFA6",
"Z c #EFB0A7",
"A c #EFB1A8",
"S c #F0B2A8",
"D c #D3D3D3",
"F c #D4D4D3",
"G c #FBFBFB",
/* pixels */
"1ffffffgfgff2",
"5bbbbcbbnbbb6",
"5bzukjuzuscb6",
"5beyj sl.iwc6",
"5blrXhXp@zOb6",
"5bd+itOjowlb6",
"5bbbbbbbbbcb6",
"7ZZZZACSZZCS8",
"9GGGGGGGGGGGq",
"4FFFFFFFDDDD0",
",,,,,,3,1,,,,",
",,33$$$$$1,,,",
",,,,3,,,,,,,,",
",,:::::::>,,,",
"1:#--===*$,,3",
"3:;BBNmMm&3,1"
};
