/* XPM */
static char *up_arrow_1_14[] = {
/* columns rows colors chars-per-pixel */
"14 14 13 1 ",
"  c #9678A5",
". c #9678A6",
"X c #9778A6",
"o c #9778A7",
"O c #9779A7",
"+ c #9879A7",
"@ c #9879A8",
"# c #987AA8",
"$ c #997AA9",
"% c #997BA9",
"& c #9A7BA9",
"* c #9A7BAA",
"= c None",
/* pixels */
"======@@======",
"=====O@O@=====",
"====@@+@@@====",
"===O*@*@@@O===",
"==@@+*@@@@*@==",
"=@*+@@@*@@@@*=",
"=@+@=@@@*=@@+=",
"=====@O*@=====",
"=====+@@@=====",
"=====*@@*=====",
"====@@@@@@====",
"====@@*+@O====",
"====@*@*@@====",
"====@@*@@*===="
};
