/* XPM */
static char *vol[] = {
/* columns rows colors chars-per-pixel */
"18 15 131 2 ",
"   c #2E2E2F",
".  c #333434",
"X  c #3B3C3D",
"o  c #2C4376",
"O  c #404042",
"+  c #484848",
"@  c #4B4B4D",
"#  c #5D5D5D",
"$  c #5D5D5E",
"%  c #606061",
"&  c #626262",
"*  c #6A6B6C",
"=  c #6D6D6D",
"-  c #6F7073",
";  c #707070",
":  c #717273",
">  c #727272",
",  c #727374",
"<  c #747474",
"1  c #747577",
"2  c #7C7C7E",
"3  c #7C7D7F",
"4  c #354F8A",
"5  c #3D5792",
"6  c #3A5BA2",
"7  c #3B5CA6",
"8  c #3F62B1",
"9  c #3F64B6",
"0  c #3F65BB",
"q  c #7E7F82",
"w  c #4364AC",
"e  c #4568BA",
"r  c #4168BC",
"t  c #446AC1",
"y  c #446CC3",
"u  c #496DC0",
"i  c #496FC6",
"p  c #4670CA",
"a  c #4B72CC",
"s  c #4D75CD",
"d  c #4E74CC",
"f  c #4772D2",
"g  c #4873D1",
"h  c #4974D3",
"j  c #4C75D2",
"k  c #4A77D6",
"l  c #4D77D6",
"z  c #4B78D8",
"x  c #5178D2",
"c  c #5179D4",
"v  c #527CD7",
"b  c #517BD8",
"n  c #527AD9",
"m  c #537BD9",
"M  c #537CD9",
"N  c #537CDA",
"B  c #527CDB",
"V  c #547CDB",
"C  c #547DDB",
"Z  c #527DDE",
"A  c #517EE2",
"S  c #5380DF",
"D  c #5582E2",
"F  c #5683E3",
"G  c #5380E5",
"H  c #5481E5",
"J  c #5784E6",
"K  c #5787EC",
"L  c #5885EC",
"P  c #5987ED",
"I  c #5887EE",
"U  c #5887EF",
"Y  c #5C89EC",
"T  c #5C8AEF",
"R  c #5B8AF3",
"E  c #5C89F0",
"W  c #5D8BF1",
"Q  c #5E8CF3",
"!  c #5D8CF6",
"~  c #5E8DF7",
"^  c #658DE6",
"/  c #6F97EE",
"(  c #818285",
")  c #828386",
"_  c #858688",
"`  c #88898B",
"'  c #898A8C",
"]  c #8D8E91",
"[  c #8E8F92",
"{  c #808798",
"}  c #949596",
"|  c #949598",
" . c #96979A",
".. c #A4A5A8",
"X. c #ABACAE",
"o. c #B2B2B3",
"O. c #B9B9BA",
"+. c #B9BABC",
"@. c #BBBBBD",
"#. c #A3BCF0",
"$. c #C1C1C1",
"%. c #C3C3C3",
"&. c #C1C2C5",
"*. c #C4C4C5",
"=. c #C7C7C7",
"-. c #C6C6C9",
";. c #CACACC",
":. c #CBCBCD",
">. c #CDCDCF",
",. c #D5D5D6",
"<. c #D5D5D8",
"1. c #D7D7DA",
"2. c #D8D8D9",
"3. c #D8D9DA",
"4. c #DADADC",
"5. c #DCDCDD",
"6. c #DCDCDE",
"7. c #D8E2F6",
"8. c #E6E6E6",
"9. c #E7E7E8",
"0. c #E8E8E9",
"q. c #E9E9EA",
"w. c #EFEFEF",
"e. c #EFEFF0",
"r. c #F1F1F1",
"t. c #F1F1F2",
"y. c #F2F2F3",
"u. c #F4F4F4",
"i. c #F6F6F6",
"p. c #F6F6F7",
"a. c None",
/* pixels */
"a.a.a.a.a.a.a.a.a.a.a.a.a.a.h a.a.a.",
"a.a.a.a.a.a.* X a.a.a.a.a.a.L L a.a.",
"a.a.a.a.a., X.% a.a.a.a.l a.w ~ H a.",
"a.a.a.a.3 @.9.> a.a.a.t ~ ^ a.p R a.",
"a.a.a.` >.u.u.> a.a.a.a.j Q 7.5 ~ a.",
";.4.2.,.e.6.;.$ a.h L a.a.~ #.{ G P ",
";.1.1.+.&.&.-.$ a.a.L D a.A / a.t Q ",
"6.q.9.2.e.t.t.= a.a.z S a.p Y a.9 Q ",
"+.*.&.$.9.t.u.1 a.a.m c a.g D a.r T ",
"3 ( ( > } o.=.% a.0 M a.a.B B a.k J ",
"a.a.a.] ( 1 ' + a.a.a.a.w M a.o Z B ",
"a.a.a.a. .} > . a.a.a.6 Z d a.7 M a.",
"a.a.a.a.a.[ ..O a.a.a.a.u a.4 B d a.",
"a.a.a.a.a.a._ @ a.a.a.a.a.a.a x a.a.",
"a.a.a.a.a.a.a.  a.a.a.a.a.a.e a.a.a."
};
