/* XPM */
static char *wifi_icon_16[] = {
/* columns rows colors chars-per-pixel */
"16 16 28 1 ",
"  c #39A0D3",
". c #3AA5DA",
"X c #3FA5D8",
"o c #3FA8DD",
"O c #3FA9DE",
"+ c #43AADD",
"@ c #45ABDE",
"# c #48ACDF",
"$ c #41ACE1",
"% c #44AEE2",
"& c #46AEE2",
"* c #46B0E5",
"= c #4AB0E3",
"- c #4CB1E3",
"; c #48B2E7",
": c #49B2E7",
"> c #49B3E8",
", c #4BB4E9",
"< c #4BB5EA",
"1 c #4DB5E9",
"2 c #4FB5E8",
"3 c #4FB5E9",
"4 c #4DB7EC",
"5 c #4FB9EE",
"6 c #50B8ED",
"7 c #50B9EE",
"8 c #52BBF0",
"9 c None",
/* pixels */
"9999999999999999",
"9999999999999999",
"9999988888899999",
"9957773113777799",
"9441-999999-1449",
"<<=9999999999=<1",
"9#99;>>>>>;;99#9",
"999**&@99@&**999",
"999%+999999+&999",
"999999$$$$999999",
"99999ooXXo+99999",
"9999999999999999",
"9999999..9999999",
"9999999  9999999",
"9999999999999999",
"9999999999999999"
};
